<svg height="511pt" viewBox="0 -17 511.99941 511" width="511pt" xmlns="http://www.w3.org/2000/svg"><path d="m265.609375 105.871094c4.144531 0 7.503906-3.355469 7.503906-7.5 0-4.144532-3.359375-7.503906-7.503906-7.503906h-81.195313c-4.144531 0-7.503906 3.359374-7.503906 7.503906 0 4.144531 3.359375 7.5 7.503906 7.5zm0 0"/><path d="m306.207031 125.164062h-162.390625c-4.144531 0-7.503906 3.359376-7.503906 7.503907s3.359375 7.5 7.503906 7.5h162.390625c4.144531 0 7.503907-3.355469 7.503907-7.5s-3.359376-7.503907-7.503907-7.503907zm0 0"/><path d="m306.207031 159.460938h-162.390625c-4.144531 0-7.503906 3.359374-7.503906 7.503906 0 4.144531 3.359375 7.5 7.503906 7.5h162.390625c4.144531 0 7.503907-3.355469 7.503907-7.5 0-4.144532-3.359376-7.503906-7.503907-7.503906zm0 0"/><path d="m306.207031 193.757812h-162.390625c-4.144531 0-7.503906 3.359376-7.503906 7.503907s3.359375 7.503906 7.503906 7.503906h162.390625c4.144531 0 7.503907-3.359375 7.503907-7.503906s-3.359376-7.503907-7.503907-7.503907zm0 0"/><path d="m306.207031 228.054688h-162.390625c-4.144531 0-7.503906 3.359374-7.503906 7.503906 0 4.144531 3.359375 7.503906 7.503906 7.503906h162.390625c4.144531 0 7.503907-3.359375 7.503907-7.503906 0-4.144532-3.359376-7.503906-7.503907-7.503906zm0 0"/><path d="m306.207031 262.351562h-162.390625c-4.144531 0-7.503906 3.359376-7.503906 7.503907s3.359375 7.503906 7.503906 7.503906h162.390625c4.144531 0 7.503907-3.359375 7.503907-7.503906s-3.359376-7.503907-7.503907-7.503907zm0 0"/><path d="m464.148438 151.496094c-18.828126-11.113282-41.730469-15.800782-64.484376-12.300782v-38.515624c0-4.144532-3.359374-7.503907-7.503906-7.503907-4.144531 0-7.503906 3.359375-7.503906 7.503907v41.992187c-59.914062 19.246094-85.585938 89.253906-54.097656 142.46875-7.796875 7.554687-53.332032 51.6875-63.378906 61.425781-23.113282 22.402344-59.335938 22.410156-82.460938 0-5.597656-5.429687-107.34375-104.039062-117.476562-113.859375 0-11.507812 0-197.492187 0-208.476562 0-4.8125 3.914062-8.726563 8.726562-8.726563h299.964844c4.808594 0 8.722656 3.914063 8.722656 8.726563v41.4375c0 4.144531 3.359375 7.503906 7.503906 7.503906 4.144532 0 7.503906-3.359375 7.503906-7.503906v-41.4375c0-13.085938-10.648437-23.730469-23.730468-23.730469h-299.964844c-13.085938 0-23.730469 10.644531-23.730469 23.730469v138.03125h-29.246093c-12.675782-.003907-22.992188 10.3125-22.992188 22.992187v269.625c0 12.675782 10.308594 22.996094 22.992188 22.996094h184.511718c4.144532 0 7.503906-3.359375 7.503906-7.503906 0-4.144532-3.359374-7.503906-7.503906-7.503906h-184.511718c-3.382813 0-6.40625-2.183594-7.503907-5.28125l131.109375-127.070313 27.679688 26.824219c28.769531 27.886718 74.523437 27.9375 103.347656 0l27.675781-26.824219 131.113281 127.070313c-1.101562 3.109374-4.136718 5.28125-7.507812 5.28125h-186.386719c-4.144531 0-7.503906 3.359374-7.503906 7.503906 0 4.144531 3.359375 7.503906 7.503906 7.503906h186.386719c12.679688 0 22.992188-10.316406 22.992188-22.996094v-129.175781c73.933593-30.472656 81.5625-133.167969 12.25-174.207031zm-441.15625 25.769531h29.246093v40.898437l-36.75-35.617187c1.175781-3.238281 4.253907-5.28125 7.503907-5.28125zm-7.984376 259.890625v-234.179688c4.859376 4.710938 115.949219 112.378907 120.808594 117.089844zm463.027344-254.421875c3.3125 3.96875 5.90625 7.773437 8.269532 11.917969l-51.96875 51.964844-10.089844-10.089844zm-10.609375-10.609375-53.792969 53.792969-10.089843-10.09375 51.964843-51.96875c4.542969 2.589843 8.214844 5.183593 11.917969 8.269531zm-78.355469 71.753906 6.390626-14.910156c16.738281 16.738281 11.785156 11.785156 25.730468 25.730469l-14.910156 6.390625zm2.355469 23.578125-14.78125 6.335938c-.070312.03125-.109375.039062-.109375.042969-.074218-.023438-.191406-.144532-.207031-.191407 0 0 .003906-.039062.039063-.125l6.335937-14.78125zm45.46875 169.699219-120.8125-117.089844 23.199219-22.484375c23.917969 29.015625 61.917969 41.339844 97.613281 32.980469zm-53.632812-125.21875c-14.484375-5.921875-27.773438-16.289062-37.261719-30.445312-43.292969-64.515626 19.542969-149.292969 94.835938-124.1875l-53.214844 53.214843c-.707032.722657-1.246094 1.550781-1.652344 2.496094-2.757812 6.441406-20.789062 48.511719-23.394531 54.589844-5.402344 12.601562 7.367187 25.386719 19.980469 19.980469 6.4375-2.757813 48.164062-20.640626 54.597656-23.398438.003906-.003906.007812-.003906.011718-.007812 1-.429688 1.824219-.996094 2.476563-1.644532l53.214844-53.210937c22.398437 67.179687-44.546875 129.363281-109.59375 102.613281zm0 0"/></svg>